<svg width="32" height="32" viewBox="0 0 32 32" fill="none" xmlns="http://www.w3.org/2000/svg">
<g filter="url(#filter0_d_306_6994)">
<path d="M17.5675 7L17.2683 13.9232H15.3618L15.0626 7H17.5675ZM15 16.0802C15 15.7462 15.1206 15.4679 15.3618 15.2452C15.603 15.0179 15.9161 14.9043 16.3011 14.9043C16.6862 14.9043 16.9969 15.0179 17.2335 15.2452C17.4747 15.4679 17.5953 15.7462 17.5953 16.0802C17.5953 16.4142 17.4747 16.6948 17.2335 16.9221C16.9969 17.1448 16.6862 17.2561 16.3011 17.2561C15.9161 17.2561 15.603 17.1448 15.3618 16.9221C15.1206 16.6948 15 16.4142 15 16.0802Z" fill="#FF2323"/>
<rect x="4.75" y="0.75" width="22.5" height="22.5" rx="11.25" stroke="#FF2323" stroke-width="1.5" shape-rendering="crispEdges"/>
</g>
<defs>
<filter id="filter0_d_306_6994" x="0" y="0" width="32" height="32" filterUnits="userSpaceOnUse" color-interpolation-filters="sRGB">
<feFlood flood-opacity="0" result="BackgroundImageFix"/>
<feColorMatrix in="SourceAlpha" type="matrix" values="0 0 0 0 0 0 0 0 0 0 0 0 0 0 0 0 0 0 127 0" result="hardAlpha"/>
<feOffset dy="4"/>
<feGaussianBlur stdDeviation="2"/>
<feComposite in2="hardAlpha" operator="out"/>
<feColorMatrix type="matrix" values="0 0 0 0 0 0 0 0 0 0 0 0 0 0 0 0 0 0 0.25 0"/>
<feBlend mode="normal" in2="BackgroundImageFix" result="effect1_dropShadow_306_6994"/>
<feBlend mode="normal" in="SourceGraphic" in2="effect1_dropShadow_306_6994" result="shape"/>
</filter>
</defs>
</svg>
